<svg xmlns="http://www.w3.org/2000/svg" width="50mm" height="50mm" viewBox="0 0 50 50" shape-rendering="geometricPrecision" text-rendering="geometricPrecision" image-rendering="optimizeQuality" fill-rule="evenodd" clip-rule="evenodd"><defs><style type="text/css"><![CDATA[
    .fil0 {fill:black}
    .fil3 {fill:url(#id6)}
    .fil1 {fill:url(#id7)}
    .fil2 {fill:url(#id8)}
   ]]></style><mask id="id0"><radialGradient id="id1" gradientUnits="userSpaceOnUse" cx="26.67" cy="26.67" r="23.524" fx="26.67" fy="26.67"><stop offset="0" stop-color="#fff"/><stop offset=".702" stop-color="#fff"/><stop offset="1" stop-opacity="0" stop-color="#fff"/></radialGradient><path fill="url(#id1)" d="M-2.502-2.502h55.005v55.005H-2.502z"/></mask><mask id="id2"><linearGradient id="id3" gradientUnits="userSpaceOnUse" x1="7.78" y1="42.22" x2="42.22" y2="7.78"><stop offset="0" stop-opacity=".859" stop-color="#fff"/><stop offset=".502" stop-opacity="0" stop-color="#fff"/><stop offset="1" stop-opacity=".859" stop-color="#fff"/></linearGradient><path fill="url(#id3)" d="M4.497 4.497h41.005v41.005H4.497z"/></mask><mask id="id4"><linearGradient id="id5" gradientUnits="userSpaceOnUse" x1="12.82" y1="37.18" x2="37.18" y2="12.82"><stop offset="0" stop-opacity=".718" stop-color="#fff"/><stop offset=".502" stop-opacity=".047" stop-color="#fff"/><stop offset="1" stop-opacity=".718" stop-color="#fff"/></linearGradient><path fill="url(#id5)" d="M10.498 10.498h29.005v29.005H10.498z"/></mask><linearGradient id="id6" gradientUnits="userSpaceOnUse" x1="16.5" y1="16.5" x2="33.5" y2="33.5"><stop offset="0"/><stop offset="1" stop-color="#4D4D4D"/></linearGradient><radialGradient id="id7" gradientUnits="userSpaceOnUse" cx="24.59" cy="24.59" r="20.5" fx="24.59" fy="24.59"><stop offset="0"/><stop offset=".749"/><stop offset=".859" stop-color="#808080"/><stop offset=".969"/><stop offset="1"/></radialGradient><radialGradient id="id8" gradientUnits="userSpaceOnUse" cx="24.71" cy="24.71" r="14.5" fx="24.71" fy="24.71"><stop offset="0"/><stop offset=".651"/><stop offset=".812" stop-color="#808080"/><stop offset=".961"/><stop offset="1"/></radialGradient></defs><g id="Слой_x0020_1"><path class="fil0" d="M25-2.5C40.188-2.5 52.5 9.812 52.5 25S40.188 52.5 25 52.5-2.5 40.188-2.5 25 9.812-2.5 25-2.5z" mask="url(#id0)"/><path class="fil1" d="M25 45.5C13.678 45.5 4.5 36.322 4.5 25S13.678 4.5 25 4.5 45.5 13.678 45.5 25 36.322 45.5 25 45.5z"/><path class="fil2" d="M25 39.5c-8.008 0-14.5-6.492-14.5-14.5S16.992 10.5 25 10.5 39.5 16.992 39.5 25 33.008 39.5 25 39.5z"/><path class="fil0" d="M25 45.5C13.678 45.5 4.5 36.322 4.5 25S13.678 4.5 25 4.5 45.5 13.678 45.5 25 36.322 45.5 25 45.5z" mask="url(#id2)"/><path class="fil0" d="M25 39.5c-8.008 0-14.5-6.492-14.5-14.5S16.992 10.5 25 10.5 39.5 16.992 39.5 25 33.008 39.5 25 39.5z" mask="url(#id4)"/><path class="fil3" d="M31.01 18.99c3.32 3.32 3.32 8.7 0 12.02-3.32 3.32-8.7 3.32-12.02 0-3.32-3.32-3.32-8.7 0-12.02 3.32-3.32 8.7-3.32 12.02 0z"/></g></svg>