<svg xmlns="http://www.w3.org/2000/svg" width="50mm" height="50mm" viewBox="0 0 50 50" shape-rendering="geometricPrecision" text-rendering="geometricPrecision" image-rendering="optimizeQuality" fill-rule="evenodd" clip-rule="evenodd"><defs><style type="text/css"><![CDATA[
    .fil0 {fill:black}
    .fil5 {fill:url(#id6)}
    .fil2 {fill:url(#id7)}
    .fil4 {fill:url(#id8)}
    .fil1 {fill:url(#id9)}
    .fil3 {fill:url(#id10)}
   ]]></style><mask id="id0"><radialGradient id="id1" gradientUnits="userSpaceOnUse" cx="26.67" cy="26.67" r="23.524" fx="26.67" fy="26.67"><stop offset="0" stop-color="#fff"/><stop offset=".702" stop-color="#fff"/><stop offset="1" stop-opacity="0" stop-color="#fff"/></radialGradient><path fill="url(#id1)" d="M-2.502-2.502h55.005v55.005H-2.502z"/></mask><mask id="id2"><linearGradient id="id3" gradientUnits="userSpaceOnUse" x1="39.941" y1="39.867" x2="10.059" y2="10.133"><stop offset="0" stop-color="#fff"/><stop offset=".102" stop-color="#fff"/><stop offset=".71" stop-opacity=".204" stop-color="#fff"/><stop offset=".929" stop-opacity="0" stop-color="#fff"/><stop offset="1" stop-opacity="0" stop-color="#fff"/></linearGradient><path fill="url(#id3)" d="M4.298 4.298h41.405v41.405H4.298z"/></mask><mask id="id4"><linearGradient id="id5" gradientUnits="userSpaceOnUse" x1="35.466" y1="35.414" x2="14.534" y2="14.586"><stop offset="0" stop-color="#fff"/><stop offset=".22" stop-color="#fff"/><stop offset=".922" stop-opacity="0" stop-color="#fff"/><stop offset="1" stop-opacity="0" stop-color="#fff"/></linearGradient><path fill="url(#id5)" d="M10.498 10.498h29.005v29.005H10.498z"/></mask><linearGradient id="id6" gradientUnits="userSpaceOnUse" x1="19.22" y1="19.22" x2="30.78" y2="30.78"><stop offset="0"/><stop offset="1" stop-color="#666"/></linearGradient><radialGradient id="id7" gradientUnits="userSpaceOnUse" cx="25" cy="25" r="20.7" fx="25" fy="25"><stop offset="0" stop-color="#FEFEFE"/><stop offset=".812" stop-color="#FEFEFE"/><stop offset=".91" stop-color="#B3B3B3"/><stop offset="1" stop-color="#4D4D4D"/></radialGradient><radialGradient id="id8" gradientUnits="userSpaceOnUse" cx="25" cy="25" r="14.5" fx="25" fy="25"><stop offset="0" stop-color="#FEFEFE"/><stop offset=".722" stop-color="#FEFEFE"/><stop offset=".859" stop-color="#C6C6C6"/><stop offset="1" stop-color="#B3B3B3"/></radialGradient><radialGradient id="id9" gradientUnits="userSpaceOnUse" cx="25" cy="25" r="20.5" fx="25" fy="25"><stop offset="0" stop-color="#B3B3B3"/><stop offset=".702" stop-color="#B3B3B3"/><stop offset=".788" stop-color="#BFBFBF"/><stop offset=".89" stop-color="#FEFEFE"/><stop offset="1" stop-color="#fff"/></radialGradient><radialGradient id="id10" gradientUnits="userSpaceOnUse" cx="25" cy="25" r="14.5" fx="25" fy="25"><stop offset="0" stop-color="#999"/><stop offset=".569" stop-color="#999"/><stop offset=".71" stop-color="#B3B3B3"/><stop offset=".839" stop-color="#FEFEFE"/><stop offset="1" stop-color="#fff"/></radialGradient></defs><g id="Слой_x0020_1"><path class="fil0" d="M25-2.5C40.188-2.5 52.5 9.812 52.5 25S40.188 52.5 25 52.5-2.5 40.188-2.5 25 9.812-2.5 25-2.5z" mask="url(#id0)"/><path class="fil1" d="M25 45.5C13.678 45.5 4.5 36.322 4.5 25S13.678 4.5 25 4.5 45.5 13.678 45.5 25 36.322 45.5 25 45.5z"/><path class="fil2" d="M25 45.7C13.568 45.7 4.3 36.432 4.3 25 4.3 13.568 13.568 4.3 25 4.3c11.432 0 20.7 9.268 20.7 20.7 0 11.432-9.268 20.7-20.7 20.7z" mask="url(#id2)"/><path class="fil3" d="M25 39.5c-8.008 0-14.5-6.492-14.5-14.5S16.992 10.5 25 10.5 39.5 16.992 39.5 25 33.008 39.5 25 39.5z"/><path class="fil4" d="M25 39.5c-8.008 0-14.5-6.492-14.5-14.5S16.992 10.5 25 10.5 39.5 16.992 39.5 25 33.008 39.5 25 39.5z" mask="url(#id4)"/><path class="fil5" d="M31.01 18.99c3.32 3.32 3.32 8.7 0 12.02-3.32 3.32-8.7 3.32-12.02 0-3.32-3.32-3.32-8.7 0-12.02 3.32-3.32 8.7-3.32 12.02 0z"/></g></svg>